<?xml version="1.0" encoding="UTF-8" standalone="no"?><!-- Generator: Gravit.io --><svg xmlns="http://www.w3.org/2000/svg" xmlns:xlink="http://www.w3.org/1999/xlink" style="isolation:isolate" viewBox="0 0 512 512" width="512pt" height="512pt"><defs><clipPath id="_clipPath_Rucs2eZaKVxuZqKjoeqMuTXSpUXOBD2p"><rect width="512" height="512"/></clipPath></defs><g clip-path="url(#_clipPath_Rucs2eZaKVxuZqKjoeqMuTXSpUXOBD2p)"><rect width="512" height="512" style="fill:rgb(0,0,0)" fill-opacity="0"/><g><g><path d=" M 74.709 170.747 C 57.041 170.747 42.717 185.071 42.717 202.739 L 42.717 352.037 C 42.717 369.706 57.041 384.03 74.709 384.03 C 92.378 384.03 106.702 369.706 106.702 352.037 L 106.702 202.739 C 106.702 185.071 92.378 170.747 74.709 170.747 Z " fill="rgb(170,29,29)"/><path d=" M 437.291 170.747 C 419.622 170.747 405.298 185.071 405.298 202.739 L 405.298 352.037 C 405.298 369.706 419.622 384.03 437.291 384.03 C 454.959 384.03 469.283 369.706 469.283 352.037 L 469.283 202.739 C 469.283 185.071 454.96 170.747 437.291 170.747 Z " fill="rgb(170,29,29)"/><path d=" M 373.306 170.747 L 138.694 170.747 C 132.805 170.747 128.03 175.522 128.03 181.411 L 128.03 352.037 C 128.025 377.38 145.857 399.223 170.687 404.292 L 170.687 480.007 C 170.687 497.676 185.011 512 202.68 512 C 220.348 512 234.672 497.676 234.672 480.007 L 234.672 405.358 L 277.329 405.358 L 277.329 480.007 C 277.329 497.676 291.653 512 309.322 512 C 326.99 512 341.314 497.676 341.314 480.007 L 341.314 404.292 C 366.144 399.223 383.976 377.38 383.971 352.037 L 383.971 181.411 C 383.97 175.522 379.195 170.747 373.306 170.747 Z " fill="rgb(170,29,29)"/><path d=" M 333.529 44.313 L 359.528 18.335 C 363.764 14.243 363.881 7.492 359.79 3.255 C 355.698 -0.981 348.947 -1.098 344.71 2.993 C 344.621 3.079 344.534 3.166 344.448 3.255 L 314.162 33.542 C 277.069 17.429 234.952 17.429 197.859 33.542 L 167.573 3.234 C 163.337 -0.858 156.585 -0.74 152.493 3.496 C 148.502 7.629 148.502 14.181 152.493 18.313 L 178.471 44.312 C 146.802 65.267 127.834 100.779 128.03 138.753 C 128.03 144.643 132.805 149.418 138.694 149.418 L 373.307 149.418 C 379.196 149.418 383.971 144.643 383.971 138.753 C 384.166 100.78 365.198 65.268 333.529 44.313 Z " fill="rgb(170,29,29)"/></g></g><path d=" M 310.575 229.4 L 310.575 229.4 Q 327.225 229.4 335.7 242.675 L 335.7 242.675 L 335.7 242.675 Q 344.175 255.95 344.175 281.15 L 344.175 281.15 L 344.175 281.15 Q 344.175 306.35 335.7 319.7 L 335.7 319.7 L 335.7 319.7 Q 327.225 333.05 310.575 333.05 L 310.575 333.05 L 310.575 333.05 Q 293.925 333.05 285.45 319.7 L 285.45 319.7 L 285.45 319.7 Q 276.975 306.35 276.975 281.15 L 276.975 281.15 L 276.975 281.15 Q 276.975 255.95 285.45 242.675 L 285.45 242.675 L 285.45 242.675 Q 293.925 229.4 310.575 229.4 L 310.575 229.4 L 310.575 229.4 Z  M 310.575 240.35 L 310.575 240.35 Q 300.825 240.35 296.1 249.95 L 296.1 249.95 L 296.1 249.95 Q 291.375 259.55 291.375 281.15 L 291.375 281.15 L 291.375 281.15 Q 291.375 302.75 296.1 312.425 L 296.1 312.425 L 296.1 312.425 Q 300.825 322.1 310.575 322.1 L 310.575 322.1 L 310.575 322.1 Q 320.175 322.1 324.975 312.425 L 324.975 312.425 L 324.975 312.425 Q 329.775 302.75 329.775 281.15 L 329.775 281.15 L 329.775 281.15 Q 329.775 259.7 324.975 250.025 L 324.975 250.025 L 324.975 250.025 Q 320.175 240.35 310.575 240.35 L 310.575 240.35 L 310.575 240.35 Z  M 222.525 230.9 L 220.575 241.7 L 181.425 241.7 L 181.425 271.25 L 181.425 271.25 Q 189.075 267.35 197.475 267.35 L 197.475 267.35 L 197.475 267.35 Q 210.375 267.35 218.175 275.825 L 218.175 275.825 L 218.175 275.825 Q 225.975 284.3 225.975 299.15 L 225.975 299.15 L 225.975 299.15 Q 225.975 309.05 221.625 316.775 L 221.625 316.775 L 221.625 316.775 Q 217.275 324.5 209.4 328.775 L 209.4 328.775 L 209.4 328.775 Q 201.525 333.05 191.175 333.05 L 191.175 333.05 L 191.175 333.05 Q 182.025 333.05 174.825 329.825 L 174.825 329.825 L 174.825 329.825 Q 167.625 326.6 161.475 320.3 L 161.475 320.3 L 169.575 312.35 L 169.575 312.35 Q 174.375 317.15 179.475 319.475 L 179.475 319.475 L 179.475 319.475 Q 184.575 321.8 191.025 321.8 L 191.025 321.8 L 191.025 321.8 Q 200.625 321.8 206.1 315.8 L 206.1 315.8 L 206.1 315.8 Q 211.575 309.8 211.575 298.85 L 211.575 298.85 L 211.575 298.85 Q 211.575 287.9 206.625 282.95 L 206.625 282.95 L 206.625 282.95 Q 201.675 278 193.275 278 L 193.275 278 L 193.275 278 Q 189.375 278 186.075 278.825 L 186.075 278.825 L 186.075 278.825 Q 182.775 279.65 179.025 281.45 L 179.025 281.45 L 168.225 281.45 L 168.225 230.9 L 222.525 230.9 L 222.525 230.9 Z  M 250.575 312.2 L 250.575 312.2 Q 255.075 312.2 258.075 315.2 L 258.075 315.2 L 258.075 315.2 Q 261.075 318.2 261.075 322.55 L 261.075 322.55 L 261.075 322.55 Q 261.075 326.9 258.075 329.975 L 258.075 329.975 L 258.075 329.975 Q 255.075 333.05 250.575 333.05 L 250.575 333.05 L 250.575 333.05 Q 246.225 333.05 243.225 329.975 L 243.225 329.975 L 243.225 329.975 Q 240.225 326.9 240.225 322.55 L 240.225 322.55 L 240.225 322.55 Q 240.225 318.2 243.225 315.2 L 243.225 315.2 L 243.225 315.2 Q 246.225 312.2 250.575 312.2 L 250.575 312.2 L 250.575 312.2 Z " fill="rgb(255,255,255)"/></g></svg>