<?xml version="1.0" encoding="UTF-8" standalone="no"?><!-- Generator: Gravit.io --><svg xmlns="http://www.w3.org/2000/svg" xmlns:xlink="http://www.w3.org/1999/xlink" style="isolation:isolate" viewBox="0 0 512 512" width="512pt" height="512pt"><defs><clipPath id="_clipPath_QHups2wbXwjD5vOhbeCfRofbyeoolPal"><rect width="512" height="512"/></clipPath></defs><g clip-path="url(#_clipPath_QHups2wbXwjD5vOhbeCfRofbyeoolPal)"><rect width="512" height="512" style="fill:rgb(0,0,0)" fill-opacity="0"/><g><g><g><g><circle vector-effect="non-scaling-stroke" cx="256" cy="378.5" r="25" fill="rgb(255,255,255)"/><path d=" M 256 0 C 114.516 0 0 114.497 0 256 C 0 397.484 114.497 512 256 512 C 397.484 512 512 397.503 512 256 C 512 114.516 397.503 0 256 0 Z  M 256 472 C 136.623 472 40 375.393 40 256 C 40 136.623 136.607 40 256 40 C 375.377 40 472 136.607 472 256 C 472 375.377 375.393 472 256 472 Z " fill="rgb(255,255,255)"/><path d=" M 256 128.5 C 211.888 128.5 176 164.388 176 208.5 C 176 219.546 184.954 228.5 196 228.5 C 207.046 228.5 216 219.546 216 208.5 C 216 186.444 233.944 168.5 256 168.5 C 278.056 168.5 296 186.444 296 208.5 C 296 230.556 278.056 248.5 256 248.5 C 244.954 248.5 236 257.454 236 268.5 L 236 318.5 C 236 329.546 244.954 338.5 256 338.5 C 267.046 338.5 276 329.546 276 318.5 L 276 285.969 C 310.466 277.066 336 245.709 336 208.5 C 336 164.388 300.112 128.5 256 128.5 Z " fill="rgb(255,255,255)"/></g></g></g></g></g></svg>