<?xml version="1.0" encoding="UTF-8" standalone="no"?><!-- Generator: Gravit.io --><svg xmlns="http://www.w3.org/2000/svg" xmlns:xlink="http://www.w3.org/1999/xlink" style="isolation:isolate" viewBox="0 0 512 512" width="512pt" height="512pt"><defs><clipPath id="_clipPath_N2OGq6ZCGxCe9q4th4sIXT1rJxRzcKH7"><rect width="512" height="512"/></clipPath></defs><g clip-path="url(#_clipPath_N2OGq6ZCGxCe9q4th4sIXT1rJxRzcKH7)"><rect width="512" height="512" style="fill:rgb(0,0,0)" fill-opacity="0"/><g><path d=" M 185.256 512 C 109.055 511.561 46.022 356.009 46.022 276.79 C 46.022 147.386 143.098 119.056 180.51 119.056 C 197.37 119.056 215.372 125.677 231.252 131.536 C 242.355 135.623 253.84 139.842 260.227 139.842 C 264.05 139.842 273.059 136.253 281.012 133.104 C 297.976 126.351 319.084 117.958 343.663 117.958 C 343.708 117.958 343.766 117.958 343.809 117.958 C 362.163 117.958 417.813 121.986 451.27 172.23 L 459.107 184.007 L 447.829 192.518 C 431.715 204.676 402.316 226.854 402.316 270.785 C 402.316 322.816 435.611 342.826 451.607 352.45 C 458.668 356.698 465.977 361.078 465.977 370.658 C 465.977 376.913 416.055 511.224 343.56 511.224 C 325.822 511.224 313.283 505.892 302.222 501.19 C 291.032 496.429 281.378 492.328 265.425 492.328 C 257.339 492.328 247.114 496.151 236.29 500.209 C 221.497 505.73 204.752 512 185.754 512 L 185.256 512 Z " fill="rgb(170,29,29)"/><path d=" M 351.343 0 C 353.231 68.076 304.546 115.304 255.918 112.342 C 247.905 58.015 304.541 0 351.343 0 Z " fill="rgb(170,29,29)"/></g><path d=" M 322.275 250.4 L 322.275 250.4 Q 331.575 250.4 338.25 253.85 L 338.25 253.85 L 338.25 253.85 Q 344.925 257.3 348.45 263.15 L 348.45 263.15 L 348.45 263.15 Q 351.975 269 351.975 275.9 L 351.975 275.9 L 351.975 275.9 Q 351.975 285.05 346.65 290.975 L 346.65 290.975 L 346.65 290.975 Q 341.325 296.9 332.475 299 L 332.475 299 L 332.475 299 Q 342.525 299.9 348.825 306.2 L 348.825 306.2 L 348.825 306.2 Q 355.125 312.5 355.125 323.3 L 355.125 323.3 L 355.125 323.3 Q 355.125 332 350.925 339.05 L 350.925 339.05 L 350.925 339.05 Q 346.725 346.1 338.925 350.075 L 338.925 350.075 L 338.925 350.075 Q 331.125 354.05 320.925 354.05 L 320.925 354.05 L 320.925 354.05 Q 311.775 354.05 304.125 350.675 L 304.125 350.675 L 304.125 350.675 Q 296.475 347.3 290.775 340.55 L 290.775 340.55 L 299.025 332.9 L 299.025 332.9 Q 303.975 338 309.15 340.4 L 309.15 340.4 L 309.15 340.4 Q 314.325 342.8 320.475 342.8 L 320.475 342.8 L 320.475 342.8 Q 329.925 342.8 335.325 337.475 L 335.325 337.475 L 335.325 337.475 Q 340.725 332.15 340.725 323.15 L 340.725 323.15 L 340.725 323.15 Q 340.725 313.25 335.625 309.2 L 335.625 309.2 L 335.625 309.2 Q 330.525 305.15 320.775 305.15 L 320.775 305.15 L 313.275 305.15 L 314.925 294.5 L 320.025 294.5 L 320.025 294.5 Q 327.825 294.5 333 289.85 L 333 289.85 L 333 289.85 Q 338.175 285.2 338.175 276.8 L 338.175 276.8 L 338.175 276.8 Q 338.175 269.75 333.675 265.625 L 333.675 265.625 L 333.675 265.625 Q 329.175 261.5 321.525 261.5 L 321.525 261.5 L 321.525 261.5 Q 315.675 261.5 310.8 263.6 L 310.8 263.6 L 310.8 263.6 Q 305.925 265.7 300.825 270.5 L 300.825 270.5 L 293.625 262.25 L 293.625 262.25 Q 306.375 250.4 322.275 250.4 L 322.275 250.4 L 322.275 250.4 Z  M 158.925 251.9 L 171.075 251.9 L 171.075 352.25 L 157.275 352.25 L 157.275 266.6 L 133.875 280.85 L 127.875 271.1 L 158.925 251.9 L 158.925 251.9 Z  M 223.875 251.9 L 236.025 251.9 L 236.025 352.25 L 222.225 352.25 L 222.225 266.6 L 198.825 280.85 L 192.825 271.1 L 223.875 251.9 L 223.875 251.9 Z  M 270.375 333.2 L 270.375 333.2 Q 274.875 333.2 277.875 336.2 L 277.875 336.2 L 277.875 336.2 Q 280.875 339.2 280.875 343.55 L 280.875 343.55 L 280.875 343.55 Q 280.875 347.9 277.875 350.975 L 277.875 350.975 L 277.875 350.975 Q 274.875 354.05 270.375 354.05 L 270.375 354.05 L 270.375 354.05 Q 266.025 354.05 263.025 350.975 L 263.025 350.975 L 263.025 350.975 Q 260.025 347.9 260.025 343.55 L 260.025 343.55 L 260.025 343.55 Q 260.025 339.2 263.025 336.2 L 263.025 336.2 L 263.025 336.2 Q 266.025 333.2 270.375 333.2 L 270.375 333.2 L 270.375 333.2 Z " fill="rgb(255,255,255)"/></g></svg>