<?xml version="1.0" encoding="UTF-8" standalone="no"?><!-- Generator: Gravit.io --><svg xmlns="http://www.w3.org/2000/svg" xmlns:xlink="http://www.w3.org/1999/xlink" style="isolation:isolate" viewBox="0 0 512 512" width="512pt" height="512pt"><defs><clipPath id="_clipPath_eNy6Ww2SkaWf6QxHUJ2L5rFQvdX3SUuu"><rect width="512" height="512"/></clipPath></defs><g clip-path="url(#_clipPath_eNy6Ww2SkaWf6QxHUJ2L5rFQvdX3SUuu)"><rect width="512" height="512" style="fill:rgb(0,0,0)" fill-opacity="0"/><g><path d=" M 252.77 246.633 C 286.652 246.633 315.988 234.48 339.965 210.504 C 363.934 186.531 376.09 157.199 376.09 123.313 C 376.09 89.438 363.938 60.102 339.961 36.121 C 315.984 12.152 286.648 0 252.77 0 C 218.883 0 189.551 12.152 165.578 36.125 C 141.605 60.098 129.449 89.434 129.449 123.313 C 129.449 157.199 141.605 186.535 165.578 210.508 C 189.559 234.477 218.895 246.633 252.77 246.633 L 252.77 246.633 Z  M 186.797 57.34 C 205.191 38.945 226.77 30.004 252.77 30.004 C 278.766 30.004 300.348 38.945 318.746 57.34 C 337.141 75.738 346.086 97.32 346.086 123.313 C 346.086 149.313 337.141 170.891 318.746 189.289 C 300.348 207.688 278.766 216.629 252.77 216.629 C 226.777 216.629 205.199 207.684 186.797 189.289 C 168.398 170.895 159.453 149.313 159.453 123.313 C 159.453 97.32 168.398 75.738 186.797 57.34 Z " fill="rgb(255,255,255)"/><path d=" M 468.547 393.703 C 467.855 383.727 466.457 372.844 464.398 361.352 C 462.32 349.773 459.645 338.828 456.441 328.824 C 453.129 318.484 448.633 308.273 443.066 298.488 C 437.297 288.332 430.516 279.488 422.906 272.211 C 414.949 264.598 405.207 258.477 393.941 254.012 C 382.715 249.57 370.273 247.32 356.965 247.32 C 351.738 247.32 346.684 249.465 336.922 255.82 C 330.914 259.738 323.887 264.27 316.043 269.281 C 309.336 273.555 300.25 277.559 289.027 281.184 C 278.078 284.727 266.961 286.523 255.984 286.523 C 245.016 286.523 233.898 284.727 222.941 281.184 C 211.73 277.562 202.641 273.559 195.945 269.285 C 188.176 264.32 181.145 259.789 175.047 255.816 C 165.293 249.461 160.238 247.316 155.012 247.316 C 141.699 247.316 129.262 249.57 118.039 254.016 C 106.781 258.473 97.035 264.594 89.07 272.215 C 81.461 279.496 74.68 288.336 68.914 298.488 C 63.355 308.273 58.855 318.48 55.543 328.828 C 52.344 338.832 49.668 349.773 47.59 361.352 C 45.527 372.828 44.133 383.715 43.441 393.715 C 42.762 403.492 42.418 413.668 42.418 423.949 C 42.418 450.676 50.914 472.313 67.668 488.27 C 84.215 504.016 106.105 512 132.734 512 L 379.266 512 C 405.887 512 427.777 504.016 444.328 488.27 C 461.086 472.324 469.582 450.68 469.582 423.945 C 469.578 413.629 469.23 403.453 468.547 393.703 L 468.547 393.703 Z  M 423.641 466.531 C 412.707 476.938 398.191 481.996 379.262 481.996 L 132.734 481.996 C 113.801 481.996 99.285 476.937 88.355 466.535 C 77.633 456.328 72.422 442.395 72.422 423.949 C 72.422 414.355 72.738 404.883 73.371 395.789 C 73.988 386.867 75.25 377.066 77.121 366.652 C 78.969 356.367 81.32 346.715 84.117 337.977 C 86.801 329.598 90.461 321.301 95 313.309 C 99.332 305.691 104.316 299.156 109.816 293.891 C 114.961 288.965 121.445 284.934 129.086 281.91 C 136.152 279.113 144.094 277.582 152.715 277.352 C 153.766 277.91 155.637 278.977 158.668 280.953 C 164.836 284.973 171.945 289.559 179.805 294.578 C 188.664 300.227 200.078 305.328 213.715 309.73 C 227.656 314.238 241.875 316.527 255.988 316.527 C 270.102 316.527 284.324 314.238 298.258 309.734 C 311.906 305.324 323.316 300.227 332.188 294.57 C 340.23 289.43 347.141 284.977 353.309 280.953 C 356.34 278.98 358.211 277.91 359.262 277.352 C 367.887 277.582 375.828 279.113 382.898 281.91 C 390.535 284.934 397.02 288.969 402.164 293.891 C 407.664 299.152 412.648 305.688 416.98 313.313 C 421.523 321.301 425.188 329.602 427.867 337.973 C 430.668 346.723 433.023 356.371 434.867 366.648 C 436.734 377.082 438 386.887 438.617 395.793 L 438.617 395.801 C 439.254 404.859 439.574 414.328 439.578 423.949 C 439.574 442.398 434.363 456.328 423.641 466.531 L 423.641 466.531 Z " fill="rgb(255,255,255)"/></g></g></svg>