{
    "asset" : {
        "generator" : "Khronos glTF Blender I/O v1.1.46",
        "version" : "2.0"
    },
    "scene" : 0,
    "scenes" : [
        {
            "name" : "Scene",
            "nodes" : [
                0,
                1,
                2
            ]
        }
    ],
    "nodes" : [
        {
            "mesh" : 0,
            "name" : "model",
            "rotation" : [
                0.7071068286895752,
                0,
                0,
                0.7071067094802856
            ],
            "scale" : [
                0.8253689408302307,
                0.8253689408302307,
                0.8253689408302307
            ],
            "translation" : [
                0.7279975414276123,
                0.33125174045562744,
                -0.01917743682861328
            ]
        },
        {
            "name" : "Lamp",
            "rotation" : [
                0.16907575726509094,
                0.7558803558349609,
                -0.27217137813568115,
                0.570947527885437
            ],
            "translation" : [
                0,
                1.600000023841858,
                0
            ]
        },
        {
            "name" : "Camera",
            "rotation" : [
                0.483536034822464,
                0.33687159419059753,
                -0.20870360732078552,
                0.7804827094078064
            ],
            "translation" : [
                7.481131553649902,
                5.34366512298584,
                6.5076398849487305
            ]
        }
    ],
    "materials" : [
        {
            "doubleSided" : true,
            "name" : "sun_primary",
            "pbrMetallicRoughness" : {}
        },
        {
            "doubleSided" : true,
            "name" : "mat4",
            "pbrMetallicRoughness" : {}
        },
        {
            "doubleSided" : true,
            "name" : "mat20",
            "pbrMetallicRoughness" : {}
        },
        {
            "doubleSided" : true,
            "name" : "mat18",
            "pbrMetallicRoughness" : {}
        },
        {
            "doubleSided" : true,
            "name" : "sun_secondary",
            "pbrMetallicRoughness" : {}
        },
        {
            "doubleSided" : true,
            "name" : "mat15",
            "pbrMetallicRoughness" : {}
        },
        {
            "doubleSided" : true,
            "name" : "mat8",
            "pbrMetallicRoughness" : {}
        },
        {
            "doubleSided" : true,
            "name" : "mat9",
            "pbrMetallicRoughness" : {}
        },
        {
            "doubleSided" : true,
            "name" : "mat3",
            "pbrMetallicRoughness" : {}
        },
        {
            "doubleSided" : true,
            "name" : "mat21",
            "pbrMetallicRoughness" : {}
        },
        {
            "doubleSided" : true,
            "name" : "mat19",
            "pbrMetallicRoughness" : {}
        },
        {
            "doubleSided" : true,
            "name" : "mat14",
            "pbrMetallicRoughness" : {}
        },
        {
            "doubleSided" : true,
            "name" : "mat5",
            "pbrMetallicRoughness" : {}
        },
        {
            "doubleSided" : true,
            "name" : "mat22",
            "pbrMetallicRoughness" : {}
        },
        {
            "doubleSided" : true,
            "name" : "Material.001",
            "pbrMetallicRoughness" : {}
        }
    ],
    "meshes" : [
        {
            "name" : "model",
            "primitives" : [
                {
                    "attributes" : {
                        "POSITION" : 0,
                        "NORMAL" : 1
                    },
                    "indices" : 2,
                    "material" : 0
                },
                {
                    "attributes" : {
                        "POSITION" : 3,
                        "NORMAL" : 4
                    },
                    "indices" : 5,
                    "material" : 1
                },
                {
                    "attributes" : {
                        "POSITION" : 6,
                        "NORMAL" : 7
                    },
                    "indices" : 8,
                    "material" : 2
                },
                {
                    "attributes" : {
                        "POSITION" : 9,
                        "NORMAL" : 10
                    },
                    "indices" : 11,
                    "material" : 3
                },
                {
                    "attributes" : {
                        "POSITION" : 12,
                        "NORMAL" : 13
                    },
                    "indices" : 14,
                    "material" : 4
                },
                {
                    "attributes" : {
                        "POSITION" : 15,
                        "NORMAL" : 16
                    },
                    "indices" : 17,
                    "material" : 5
                },
                {
                    "attributes" : {
                        "POSITION" : 18,
                        "NORMAL" : 19
                    },
                    "indices" : 20,
                    "material" : 6
                },
                {
                    "attributes" : {
                        "POSITION" : 21,
                        "NORMAL" : 22
                    },
                    "indices" : 23,
                    "material" : 7
                },
                {
                    "attributes" : {
                        "POSITION" : 24,
                        "NORMAL" : 25
                    },
                    "indices" : 26,
                    "material" : 8
                },
                {
                    "attributes" : {
                        "POSITION" : 27,
                        "NORMAL" : 28
                    },
                    "indices" : 29,
                    "material" : 9
                },
                {
                    "attributes" : {
                        "POSITION" : 30,
                        "NORMAL" : 31
                    },
                    "indices" : 32,
                    "material" : 10
                },
                {
                    "attributes" : {
                        "POSITION" : 33,
                        "NORMAL" : 34
                    },
                    "indices" : 35,
                    "material" : 11
                },
                {
                    "attributes" : {
                        "POSITION" : 36,
                        "NORMAL" : 37
                    },
                    "indices" : 38,
                    "material" : 12
                },
                {
                    "attributes" : {
                        "POSITION" : 39,
                        "NORMAL" : 40
                    },
                    "indices" : 41,
                    "material" : 13
                },
                {
                    "attributes" : {
                        "POSITION" : 42,
                        "NORMAL" : 43
                    },
                    "indices" : 44,
                    "material" : 14
                }
            ]
        }
    ],
    "accessors" : [
        {
            "bufferView" : 0,
            "componentType" : 5126,
            "count" : 518,
            "max" : [
                1.4669450521469116,
                5.109314918518066,
                1.2655600309371948
            ],
            "min" : [
                -0.5527452230453491,
                3.144542932510376,
                -0.8160616159439087
            ],
            "type" : "VEC3"
        },
        {
            "bufferView" : 1,
            "componentType" : 5126,
            "count" : 518,
            "type" : "VEC3"
        },
        {
            "bufferView" : 2,
            "componentType" : 5123,
            "count" : 564,
            "type" : "SCALAR"
        },
        {
            "bufferView" : 3,
            "componentType" : 5126,
            "count" : 512,
            "max" : [
                0.44615408778190613,
                1.940953016281128,
                0.42950019240379333
            ],
            "min" : [
                0.10597120225429535,
                1.6012190580368042,
                0.08673263341188431
            ],
            "type" : "VEC3"
        },
        {
            "bufferView" : 4,
            "componentType" : 5126,
            "count" : 512,
            "type" : "VEC3"
        },
        {
            "bufferView" : 5,
            "componentType" : 5123,
            "count" : 564,
            "type" : "SCALAR"
        },
        {
            "bufferView" : 6,
            "componentType" : 5126,
            "count" : 1532,
            "max" : [
                1.1853059530258179,
                3.039541006088257,
                0.6656761169433594
            ],
            "min" : [
                1.0351649522781372,
                2.8783140182495117,
                0.5012935996055603
            ],
            "type" : "VEC3"
        },
        {
            "bufferView" : 7,
            "componentType" : 5126,
            "count" : 1532,
            "type" : "VEC3"
        },
        {
            "bufferView" : 8,
            "componentType" : 5123,
            "count" : 1590,
            "type" : "SCALAR"
        },
        {
            "bufferView" : 9,
            "componentType" : 5126,
            "count" : 668,
            "max" : [
                2.130776882171631,
                -1.154539942741394,
                0.140905499458313
            ],
            "min" : [
                -2.2564659118652344,
                -2.6256539821624756,
                -0.9317951798439026
            ],
            "type" : "VEC3"
        },
        {
            "bufferView" : 10,
            "componentType" : 5126,
            "count" : 668,
            "type" : "VEC3"
        },
        {
            "bufferView" : 11,
            "componentType" : 5123,
            "count" : 942,
            "type" : "SCALAR"
        },
        {
            "bufferView" : 12,
            "componentType" : 5126,
            "count" : 3462,
            "max" : [
                1.5747079849243164,
                5.181274890899658,
                1.281370997428894
            ],
            "min" : [
                -0.6190990805625916,
                3.027395009994507,
                -0.9495906233787537
            ],
            "type" : "VEC3"
        },
        {
            "bufferView" : 13,
            "componentType" : 5126,
            "count" : 3462,
            "type" : "VEC3"
        },
        {
            "bufferView" : 14,
            "componentType" : 5123,
            "count" : 3912,
            "type" : "SCALAR"
        },
        {
            "bufferView" : 15,
            "componentType" : 5126,
            "count" : 20726,
            "max" : [
                2.9389209747314453,
                1.9050840139389038,
                0.5885449051856995
            ],
            "min" : [
                -2.823780059814453,
                -1.5431580543518066,
                -0.5654491186141968
            ],
            "type" : "VEC3"
        },
        {
            "bufferView" : 16,
            "componentType" : 5126,
            "count" : 20726,
            "type" : "VEC3"
        },
        {
            "bufferView" : 17,
            "componentType" : 5123,
            "count" : 22068,
            "type" : "SCALAR"
        },
        {
            "bufferView" : 18,
            "componentType" : 5126,
            "count" : 1564,
            "max" : [
                0.32824280858039856,
                0.721164882183075,
                0.2715716063976288
            ],
            "min" : [
                0.06835991144180298,
                0.46281081438064575,
                0.004709839820861816
            ],
            "type" : "VEC3"
        },
        {
            "bufferView" : 19,
            "componentType" : 5126,
            "count" : 1564,
            "type" : "VEC3"
        },
        {
            "bufferView" : 20,
            "componentType" : 5123,
            "count" : 1620,
            "type" : "SCALAR"
        },
        {
            "bufferView" : 21,
            "componentType" : 5126,
            "count" : 2646,
            "max" : [
                0.45532891154289246,
                1.9228639602661133,
                0.4140600860118866
            ],
            "min" : [
                0.10332509875297546,
                1.5877360105514526,
                0.1079426035284996
            ],
            "type" : "VEC3"
        },
        {
            "bufferView" : 22,
            "componentType" : 5126,
            "count" : 2646,
            "type" : "VEC3"
        },
        {
            "bufferView" : 23,
            "componentType" : 5123,
            "count" : 2724,
            "type" : "SCALAR"
        },
        {
            "bufferView" : 24,
            "componentType" : 5126,
            "count" : 1648,
            "max" : [
                1.3396810293197632,
                -2.7127060890197754,
                0.17905570566654205
            ],
            "min" : [
                0.5708215236663818,
                -3.2213261127471924,
                -0.5335745215415955
            ],
            "type" : "VEC3"
        },
        {
            "bufferView" : 25,
            "componentType" : 5126,
            "count" : 1648,
            "type" : "VEC3"
        },
        {
            "bufferView" : 26,
            "componentType" : 5123,
            "count" : 2256,
            "type" : "SCALAR"
        },
        {
            "bufferView" : 27,
            "componentType" : 5126,
            "count" : 15,
            "max" : [
                2.1094770431518555,
                -0.5903975963592529,
                0.5364550948143005
            ],
            "min" : [
                1.1244750022888184,
                -1.395427942276001,
                0.15973110496997833
            ],
            "type" : "VEC3"
        },
        {
            "bufferView" : 28,
            "componentType" : 5126,
            "count" : 15,
            "type" : "VEC3"
        },
        {
            "bufferView" : 29,
            "componentType" : 5123,
            "count" : 15,
            "type" : "SCALAR"
        },
        {
            "bufferView" : 30,
            "componentType" : 5126,
            "count" : 2989,
            "max" : [
                2.0311570167541504,
                3.040400981903076,
                0.6581798791885376
            ],
            "min" : [
                -2.4213619232177734,
                -2.774049997329712,
                -1.0472890138626099
            ],
            "type" : "VEC3"
        },
        {
            "bufferView" : 31,
            "componentType" : 5126,
            "count" : 2989,
            "type" : "VEC3"
        },
        {
            "bufferView" : 32,
            "componentType" : 5123,
            "count" : 3861,
            "type" : "SCALAR"
        },
        {
            "bufferView" : 33,
            "componentType" : 5126,
            "count" : 1575,
            "max" : [
                1.7852089405059814,
                0.7421579957008362,
                0.27461400628089905
            ],
            "min" : [
                0.05921715125441551,
                -0.6949477195739746,
                -0.12151060253381729
            ],
            "type" : "VEC3"
        },
        {
            "bufferView" : 34,
            "componentType" : 5126,
            "count" : 1575,
            "type" : "VEC3"
        },
        {
            "bufferView" : 35,
            "componentType" : 5123,
            "count" : 1665,
            "type" : "SCALAR"
        },
        {
            "bufferView" : 36,
            "componentType" : 5126,
            "count" : 520,
            "max" : [
                -0.2057037055492401,
                -3.507354974746704,
                -0.3072079122066498
            ],
            "min" : [
                -0.7073538899421692,
                -4.0221028327941895,
                -0.8113275766372681
            ],
            "type" : "VEC3"
        },
        {
            "bufferView" : 37,
            "componentType" : 5126,
            "count" : 520,
            "type" : "VEC3"
        },
        {
            "bufferView" : 38,
            "componentType" : 5123,
            "count" : 564,
            "type" : "SCALAR"
        },
        {
            "bufferView" : 39,
            "componentType" : 5126,
            "count" : 2044,
            "max" : [
                0.4203501045703888,
                -4.446211814880371,
                -0.37153148651123047
            ],
            "min" : [
                0.315286785364151,
                -4.542846202850342,
                -0.46941450238227844
            ],
            "type" : "VEC3"
        },
        {
            "bufferView" : 40,
            "componentType" : 5126,
            "count" : 2044,
            "type" : "VEC3"
        },
        {
            "bufferView" : 41,
            "componentType" : 5123,
            "count" : 2154,
            "type" : "SCALAR"
        },
        {
            "bufferView" : 42,
            "componentType" : 5126,
            "count" : 2872,
            "max" : [
                2.2527170181274414,
                2.718453884124756,
                0.4372884929180145
            ],
            "min" : [
                -0.712088406085968,
                -1.6364339590072632,
                -0.48891058564186096
            ],
            "type" : "VEC3"
        },
        {
            "bufferView" : 43,
            "componentType" : 5126,
            "count" : 2872,
            "type" : "VEC3"
        },
        {
            "bufferView" : 44,
            "componentType" : 5123,
            "count" : 3084,
            "type" : "SCALAR"
        }
    ],
    "bufferViews" : [
        {
            "buffer" : 0,
            "byteLength" : 6216,
            "byteOffset" : 0
        },
        {
            "buffer" : 0,
            "byteLength" : 6216,
            "byteOffset" : 6216
        },
        {
            "buffer" : 0,
            "byteLength" : 1128,
            "byteOffset" : 12432
        },
        {
            "buffer" : 0,
            "byteLength" : 6144,
            "byteOffset" : 13560
        },
        {
            "buffer" : 0,
            "byteLength" : 6144,
            "byteOffset" : 19704
        },
        {
            "buffer" : 0,
            "byteLength" : 1128,
            "byteOffset" : 25848
        },
        {
            "buffer" : 0,
            "byteLength" : 18384,
            "byteOffset" : 26976
        },
        {
            "buffer" : 0,
            "byteLength" : 18384,
            "byteOffset" : 45360
        },
        {
            "buffer" : 0,
            "byteLength" : 3180,
            "byteOffset" : 63744
        },
        {
            "buffer" : 0,
            "byteLength" : 8016,
            "byteOffset" : 66924
        },
        {
            "buffer" : 0,
            "byteLength" : 8016,
            "byteOffset" : 74940
        },
        {
            "buffer" : 0,
            "byteLength" : 1884,
            "byteOffset" : 82956
        },
        {
            "buffer" : 0,
            "byteLength" : 41544,
            "byteOffset" : 84840
        },
        {
            "buffer" : 0,
            "byteLength" : 41544,
            "byteOffset" : 126384
        },
        {
            "buffer" : 0,
            "byteLength" : 7824,
            "byteOffset" : 167928
        },
        {
            "buffer" : 0,
            "byteLength" : 248712,
            "byteOffset" : 175752
        },
        {
            "buffer" : 0,
            "byteLength" : 248712,
            "byteOffset" : 424464
        },
        {
            "buffer" : 0,
            "byteLength" : 44136,
            "byteOffset" : 673176
        },
        {
            "buffer" : 0,
            "byteLength" : 18768,
            "byteOffset" : 717312
        },
        {
            "buffer" : 0,
            "byteLength" : 18768,
            "byteOffset" : 736080
        },
        {
            "buffer" : 0,
            "byteLength" : 3240,
            "byteOffset" : 754848
        },
        {
            "buffer" : 0,
            "byteLength" : 31752,
            "byteOffset" : 758088
        },
        {
            "buffer" : 0,
            "byteLength" : 31752,
            "byteOffset" : 789840
        },
        {
            "buffer" : 0,
            "byteLength" : 5448,
            "byteOffset" : 821592
        },
        {
            "buffer" : 0,
            "byteLength" : 19776,
            "byteOffset" : 827040
        },
        {
            "buffer" : 0,
            "byteLength" : 19776,
            "byteOffset" : 846816
        },
        {
            "buffer" : 0,
            "byteLength" : 4512,
            "byteOffset" : 866592
        },
        {
            "buffer" : 0,
            "byteLength" : 180,
            "byteOffset" : 871104
        },
        {
            "buffer" : 0,
            "byteLength" : 180,
            "byteOffset" : 871284
        },
        {
            "buffer" : 0,
            "byteLength" : 30,
            "byteOffset" : 871464
        },
        {
            "buffer" : 0,
            "byteLength" : 35868,
            "byteOffset" : 871496
        },
        {
            "buffer" : 0,
            "byteLength" : 35868,
            "byteOffset" : 907364
        },
        {
            "buffer" : 0,
            "byteLength" : 7722,
            "byteOffset" : 943232
        },
        {
            "buffer" : 0,
            "byteLength" : 18900,
            "byteOffset" : 950956
        },
        {
            "buffer" : 0,
            "byteLength" : 18900,
            "byteOffset" : 969856
        },
        {
            "buffer" : 0,
            "byteLength" : 3330,
            "byteOffset" : 988756
        },
        {
            "buffer" : 0,
            "byteLength" : 6240,
            "byteOffset" : 992088
        },
        {
            "buffer" : 0,
            "byteLength" : 6240,
            "byteOffset" : 998328
        },
        {
            "buffer" : 0,
            "byteLength" : 1128,
            "byteOffset" : 1004568
        },
        {
            "buffer" : 0,
            "byteLength" : 24528,
            "byteOffset" : 1005696
        },
        {
            "buffer" : 0,
            "byteLength" : 24528,
            "byteOffset" : 1030224
        },
        {
            "buffer" : 0,
            "byteLength" : 4308,
            "byteOffset" : 1054752
        },
        {
            "buffer" : 0,
            "byteLength" : 34464,
            "byteOffset" : 1059060
        },
        {
            "buffer" : 0,
            "byteLength" : 34464,
            "byteOffset" : 1093524
        },
        {
            "buffer" : 0,
            "byteLength" : 6168,
            "byteOffset" : 1127988
        }
    ],
    "buffers" : [
        {
            "byteLength" : 1134156,
            "uri" : "data:application/octet-stream;base64,"
        }
    ]
}
