<?xml version="1.0" encoding="UTF-8" standalone="no"?><!-- Generator: Gravit.io --><svg xmlns="http://www.w3.org/2000/svg" xmlns:xlink="http://www.w3.org/1999/xlink" style="isolation:isolate" viewBox="0 0 512 512" width="512pt" height="512pt"><defs><clipPath id="_clipPath_eoFUrJrX5PLTL9aTpTEnpXhm2qfylHm3"><rect width="512" height="512"/></clipPath></defs><g clip-path="url(#_clipPath_eoFUrJrX5PLTL9aTpTEnpXhm2qfylHm3)"><rect width="512" height="512" style="fill:rgb(0,0,0)" fill-opacity="0"/><path d=" M 256 0 C 114.56 0 0 112.64 0 251.563 C 0 362.731 73.344 457.003 175.04 490.24 C 187.84 492.608 192.533 484.821 192.533 478.144 C 192.533 472.171 192.32 456.341 192.213 435.371 C 121.003 450.539 105.984 401.621 105.984 401.621 C 94.336 372.587 77.504 364.821 77.504 364.821 C 54.315 349.227 79.296 349.547 79.296 349.547 C 105.003 351.296 118.507 375.467 118.507 375.467 C 141.333 413.931 178.432 402.816 193.067 396.395 C 195.371 380.117 201.963 369.045 209.28 362.752 C 152.427 356.459 92.672 334.827 92.672 238.443 C 92.672 210.987 102.592 188.544 119.019 170.944 C 116.139 164.587 107.499 139.008 121.259 104.363 C 121.259 104.363 142.699 97.621 191.659 130.155 C 212.139 124.565 233.899 121.792 255.659 121.664 C 277.419 121.792 299.179 124.565 319.659 130.155 C 368.299 97.621 389.739 104.363 389.739 104.363 C 403.499 139.008 394.859 164.587 392.299 170.944 C 408.619 188.544 418.539 210.987 418.539 238.443 C 418.539 335.083 358.699 356.352 301.739 362.539 C 310.699 370.091 319.019 385.515 319.019 409.088 C 319.019 442.752 318.699 469.803 318.699 477.973 C 318.699 484.565 323.179 492.437 336.299 489.92 C 438.72 456.896 512 362.56 512 251.563 C 512 112.64 397.376 0 256 0 Z " fill="rgb(255,255,255)"/></g></svg>