<?xml version="1.0" encoding="UTF-8" standalone="no"?><!-- Generator: Gravit.io --><svg xmlns="http://www.w3.org/2000/svg" xmlns:xlink="http://www.w3.org/1999/xlink" style="isolation:isolate" viewBox="0 0 512 512" width="512pt" height="512pt"><defs><clipPath id="_clipPath_8skDQxG60rJeTrxsNn5BZbFxKQrFBwxD"><rect width="512" height="512"/></clipPath></defs><g clip-path="url(#_clipPath_8skDQxG60rJeTrxsNn5BZbFxKQrFBwxD)"><rect width="512" height="512" style="fill:rgb(0,0,0)" fill-opacity="0"/><circle vector-effect="non-scaling-stroke" cx="255.99999085823003" cy="255.9996828000982" r="256" fill="rgb(170,29,29)" stroke-width="1" stroke="rgb(170,29,29)" stroke-linejoin="miter" stroke-linecap="square" stroke-miterlimit="3"/><g><g><g><path d=" M 363.702 290.821 C 352.038 289.884 338.839 287.11 324.473 282.578 C 307.214 277.133 290.461 277.974 274.675 285.076 C 272.449 286.077 271.421 288.778 272.377 291.109 C 273.334 293.438 275.911 294.516 278.14 293.514 C 291.975 287.289 306.713 286.569 321.941 291.372 C 336.912 296.095 350.737 298.99 363.03 299.979 C 363.144 299.988 363.258 299.992 363.371 299.992 C 365.641 299.992 367.564 298.161 367.74 295.751 C 367.926 293.223 366.118 291.015 363.702 290.821 L 363.702 290.821 Z " fill="rgb(255,255,255)"/><path d=" M 363.702 310.338 C 352.038 309.4 338.84 306.627 324.473 302.095 C 307.213 296.65 290.459 297.49 274.675 304.592 C 272.449 305.594 271.421 308.295 272.377 310.625 C 273.334 312.955 275.911 314.033 278.14 313.031 C 291.975 306.805 306.712 306.084 321.941 310.889 C 336.913 315.612 350.737 318.507 363.03 319.495 C 363.144 319.505 363.258 319.508 363.371 319.508 C 365.641 319.508 367.564 317.677 367.74 315.268 C 367.926 312.739 366.118 310.532 363.702 310.338 L 363.702 310.338 Z " fill="rgb(255,255,255)"/><path d=" M 363.701 271.304 C 352.039 270.368 338.84 267.594 324.473 263.062 C 307.214 257.617 290.461 258.457 274.675 265.559 C 272.449 266.561 271.421 269.262 272.377 271.592 C 273.334 273.921 275.911 275 278.14 273.998 C 291.975 267.773 306.713 267.053 321.941 271.855 C 336.914 276.579 350.738 279.475 363.031 280.462 C 363.145 280.471 363.258 280.475 363.371 280.475 C 365.641 280.475 367.564 278.644 367.74 276.234 C 367.926 273.705 366.118 271.499 363.701 271.304 L 363.701 271.304 Z " fill="rgb(255,255,255)"/><path d=" M 148.629 182.893 C 148.742 182.893 148.856 182.889 148.97 182.879 C 161.263 181.892 175.087 178.996 190.059 174.273 C 205.288 169.469 220.025 170.189 233.859 176.415 C 236.085 177.417 238.666 176.339 239.623 174.009 C 240.58 171.679 239.551 168.978 237.325 167.977 C 221.541 160.874 204.786 160.035 187.527 165.48 C 173.16 170.011 159.962 172.785 148.298 173.722 C 145.882 173.916 144.074 176.123 144.26 178.652 C 144.436 181.061 146.359 182.893 148.629 182.893 L 148.629 182.893 Z " fill="rgb(255,255,255)"/><path d=" M 148.629 202.409 C 148.742 202.409 148.856 202.405 148.969 202.396 C 161.26 201.409 175.084 198.513 190.059 193.789 C 205.288 188.986 220.025 189.705 233.859 195.931 C 236.085 196.932 238.666 195.855 239.623 193.526 C 240.58 191.195 239.551 188.495 237.325 187.493 C 221.541 180.39 204.786 179.552 187.527 184.996 C 173.158 189.529 159.959 192.302 148.299 193.238 C 145.882 193.432 144.074 195.639 144.26 198.168 C 144.436 200.578 146.359 202.409 148.629 202.409 L 148.629 202.409 Z " fill="rgb(255,255,255)"/><path d=" M 148.629 299.992 C 148.742 299.992 148.856 299.988 148.97 299.979 C 161.264 298.991 175.088 296.095 190.059 291.372 C 205.288 286.567 220.025 287.289 233.859 293.514 C 236.085 294.515 238.666 293.438 239.623 291.109 C 240.58 288.778 239.551 286.077 237.325 285.076 C 221.541 277.973 204.786 277.134 187.527 282.578 C 173.16 287.11 159.962 289.884 148.298 290.821 C 145.882 291.015 144.074 293.223 144.26 295.751 C 144.436 298.161 146.359 299.992 148.629 299.992 L 148.629 299.992 Z " fill="rgb(255,255,255)"/><path d=" M 148.629 319.508 C 148.742 319.508 148.856 319.504 148.97 319.495 C 161.263 318.507 175.087 315.612 190.059 310.889 C 205.288 306.085 220.025 306.804 233.859 313.031 C 236.085 314.031 238.666 312.955 239.623 310.625 C 240.58 308.295 239.551 305.594 237.325 304.592 C 221.541 297.49 204.786 296.65 187.527 302.095 C 173.16 306.627 159.962 309.4 148.298 310.338 C 145.882 310.531 144.074 312.739 144.26 315.268 C 144.436 317.677 146.359 319.508 148.629 319.508 L 148.629 319.508 Z " fill="rgb(255,255,255)"/><path d=" M 148.629 221.926 C 148.742 221.926 148.856 221.922 148.97 221.913 C 161.264 220.925 175.088 218.029 190.059 213.306 C 205.288 208.501 220.025 209.223 233.859 215.448 C 236.085 216.449 238.666 215.372 239.623 213.043 C 240.58 210.712 239.551 208.011 237.325 207.01 C 221.541 199.907 204.786 199.068 187.527 204.512 C 173.16 209.044 159.962 211.818 148.298 212.755 C 145.882 212.949 144.074 215.157 144.26 217.685 C 144.436 220.095 146.359 221.926 148.629 221.926 L 148.629 221.926 Z " fill="rgb(255,255,255)"/><path d=" M 148.629 260.959 C 148.742 260.959 148.856 260.954 148.969 260.946 C 161.26 259.959 175.084 257.063 190.059 252.339 C 205.288 247.535 220.025 248.255 233.859 254.481 C 236.085 255.482 238.666 254.405 239.623 252.075 C 240.58 249.745 239.551 247.044 237.325 246.042 C 221.541 238.941 204.787 238.101 187.527 243.546 C 173.158 248.078 159.959 250.851 148.299 251.787 C 145.882 251.982 144.074 254.189 144.26 256.718 C 144.436 259.127 146.359 260.959 148.629 260.959 L 148.629 260.959 Z " fill="rgb(255,255,255)"/><path d=" M 148.629 241.442 C 148.742 241.442 148.856 241.438 148.97 241.429 C 161.263 240.441 175.087 237.546 190.059 232.823 C 205.287 228.019 220.024 228.738 233.859 234.965 C 236.085 235.965 238.666 234.889 239.623 232.559 C 240.58 230.229 239.551 227.528 237.325 226.526 C 221.54 219.424 204.786 218.583 187.527 224.029 C 173.16 228.561 159.962 231.334 148.298 232.272 C 145.882 232.465 144.074 234.673 144.26 237.202 C 144.436 239.611 146.359 241.442 148.629 241.442 L 148.629 241.442 Z " fill="rgb(255,255,255)"/><path d=" M 148.629 280.475 C 148.742 280.475 148.856 280.471 148.969 280.462 C 161.262 279.475 175.086 276.579 190.059 271.855 C 205.288 267.05 220.025 267.773 233.859 273.998 C 236.085 275 238.666 273.922 239.623 271.592 C 240.58 269.262 239.551 266.561 237.325 265.559 C 221.541 258.457 204.786 257.617 187.527 263.062 C 173.16 267.594 159.961 270.368 148.299 271.304 C 145.882 271.498 144.074 273.705 144.26 276.234 C 144.436 278.644 146.359 280.475 148.629 280.475 L 148.629 280.475 Z " fill="rgb(255,255,255)"/><path d=" M 395.029 156.392 L 388.161 156.392 L 388.161 152.202 C 388.161 146.331 383.376 141.686 377.771 142.153 C 371.298 142.695 357.123 142.728 334.918 136.834 C 332.568 136.209 330.181 137.699 329.587 140.156 C 328.991 142.615 330.412 145.113 332.761 145.736 C 355.02 151.644 369.906 152.028 378.473 151.307 C 378.972 151.271 379.386 151.676 379.386 152.202 L 379.386 215 L 379.386 307.611 L 379.386 337.512 C 362.768 339.388 340.569 334.409 324.472 329.332 C 288.521 317.991 265.28 337.475 260.386 340.251 L 260.386 156.697 C 265.127 152.043 284.233 135.559 312.668 140.348 C 315.059 140.755 317.311 139.049 317.697 136.545 C 318.082 134.041 316.456 131.684 314.063 131.281 C 284.205 126.246 263.601 141.512 255.989 148.464 C 238.535 132.62 213.569 125.582 187.527 133.799 C 159.577 142.615 142.135 142.814 134.229 142.154 C 128.617 141.682 123.84 146.342 123.84 152.202 L 123.84 156.392 L 116.971 156.392 C 111.063 156.392 106.256 161.423 106.256 167.607 L 106.256 353.827 C 106.256 360.012 111.063 365.042 116.971 365.042 L 230.64 365.042 C 232.343 365.042 233.888 366.026 234.576 367.551 C 243.09 386.406 268.877 386.476 277.423 367.551 C 278.111 366.027 279.656 365.042 281.359 365.042 L 395.028 365.042 C 400.936 365.042 405.742 360.011 405.742 353.827 L 405.742 266.74 C 405.742 264.203 403.778 262.148 401.355 262.148 C 398.931 262.148 396.968 264.203 396.968 266.74 L 396.968 353.827 C 396.968 354.946 396.098 355.857 395.028 355.857 L 281.36 355.857 C 276.28 355.857 271.622 358.906 269.491 363.625 C 264.128 375.501 247.892 375.548 242.509 363.626 C 240.379 358.907 235.72 355.857 230.64 355.857 L 116.971 355.857 C 115.901 355.857 115.03 354.946 115.03 353.827 L 115.03 167.607 C 115.03 166.487 115.901 165.576 116.971 165.576 L 123.84 165.576 L 123.84 341.431 C 123.84 343.515 125.18 345.337 127.104 345.87 C 127.938 346.101 148.032 351.384 190.059 338.125 C 210.394 331.711 230.019 335.644 245.591 347.139 C 251.612 351.582 259.993 351.876 266.411 347.138 C 275.815 340.196 295.532 329.796 321.942 338.125 C 363.971 351.383 384.063 346.101 384.897 345.87 C 386.821 345.337 388.162 343.515 388.162 341.431 L 388.162 165.576 L 395.029 165.576 C 396.099 165.576 396.97 166.487 396.97 167.607 L 396.97 245.31 C 396.97 247.847 398.933 249.902 401.357 249.902 C 403.78 249.902 405.744 247.847 405.744 245.31 L 405.744 167.607 C 405.743 161.423 400.937 156.392 395.029 156.392 L 395.029 156.392 Z  M 132.614 152.202 C 132.614 151.687 133.016 151.27 133.527 151.307 C 142.05 152.025 160.73 151.844 190.059 142.591 C 213.812 135.101 236.504 141.892 251.613 156.7 L 251.613 340.251 C 249.097 338.825 224.429 317.689 187.527 329.332 C 185.161 330.079 182.56 330.854 180.154 331.527 C 180.125 331.535 180.095 331.543 180.067 331.551 C 165.941 335.496 147.149 339.153 132.613 337.514 C 132.614 324.751 132.614 155.625 132.614 152.202 L 132.614 152.202 Z " fill="rgb(255,255,255)"/></g></g><g><g><g><path d=" M 297.394 183.641 C 298.678 182.523 298.532 180.822 297.067 179.842 C 295.602 178.862 293.373 178.973 292.089 180.091 C 282.394 188.532 277.055 199.362 277.055 210.587 C 277.055 221.812 282.394 232.642 292.089 241.083 C 292.786 241.69 293.762 242 294.743 242 C 295.568 242 296.397 241.78 297.067 241.332 C 298.532 240.352 298.678 238.651 297.394 237.532 C 279.75 222.171 279.75 199.003 297.394 183.641 Z " fill="rgb(255,255,255)"/></g></g><g><g><path d=" M 347.966 180.091 C 346.682 178.973 344.453 178.862 342.988 179.842 C 341.523 180.822 341.376 182.523 342.661 183.641 C 360.305 199.003 360.305 222.171 342.661 237.532 C 341.377 238.651 341.523 240.351 342.988 241.332 C 343.657 241.78 344.486 242 345.312 242 C 346.293 242 347.268 241.69 347.966 241.083 C 357.661 232.642 363 221.812 363 210.587 C 363 199.362 357.661 188.532 347.966 180.091 Z " fill="rgb(255,255,255)"/></g></g></g></g></g></svg>